<?xml version="1.0" encoding="UTF-8"?>
<!DOCTYPE svg PUBLIC "-//W3C//DTD SVG 1.1//EN" "http://www.w3.org/Graphics/SVG/1.1/DTD/svg11.dtd">
<!-- Creator: CorelDRAW -->
<svg xmlns="http://www.w3.org/2000/svg" xml:space="preserve" width="586.875mm" height="98.298mm" style="shape-rendering:geometricPrecision; text-rendering:geometricPrecision; image-rendering:optimizeQuality; fill-rule:evenodd; clip-rule:evenodd"
viewBox="0 0 586.875 98.298"
 xmlns:xlink="http://www.w3.org/1999/xlink"
 version="1.1"
 enable-background="new 0 0 2488 540">
 <defs>
  <style type="text/css">
   <![CDATA[
    .fil2 {fill:#40CAB0}
    .fil0 {fill:#524CB5}
    .fil1 {fill:#6050BD}
   ]]>
  </style>
 </defs>
 <g id="Warstwa_x0020_1">
  <metadata id="CorelCorpID_0Corel-Layer"/>
  <g id="_595541480">
   <g id="Warstwa_2" display="none">
   </g>
   <g id="Warstwa_1">
    <path id="_595542056" class="fil0" d="M145.927 65.4431c1.9315,2.9702 2.8981,6.6561 2.8981,11.0604 0,6.0725 -1.9898,10.7598 -5.967,14.0626 -3.9785,3.3031 -9.775,4.9546 -17.3897,4.9546l-29.6651 0 0 -70.064 27.9601 0c7.0459,0 12.4738,1.6187 16.2817,4.8546 3.8068,3.2372 5.7113,7.6912 5.7113,13.3623 0,3.4703 -0.6818,6.5401 -2.0458,9.2082 -1.3637,2.6699 -3.2393,4.7387 -5.6261,6.2058 3.2951,1.2681 5.9097,3.3871 7.8425,6.3555zm-39.0419 -29.7769l0 19.3174 15.685 0c3.864,0 6.8329,-0.8162 8.908,-2.4522 2.0735,-1.6346 3.1112,-4.0192 3.1112,-7.1566 0,-3.2028 -1.0377,-5.6208 -3.1112,-7.2567 -2.0751,-1.6343 -5.044,-2.4522 -8.908,-2.4522l-15.685 0 0 0.0003zm30.7732 39.5361c0,-6.7392 -4.2915,-10.1092 -12.8717,-10.1092l-17.9015 0 0 20.2184 17.9015 0c8.5801,0 12.8717,-3.369 12.8717,-10.1092z"/>
    <path id="_595541528" class="fil0" d="M167.066 88.3642c-4.6032,-5.438 -6.9051,-13.2278 -6.9051,-23.3714l0 -39.5361 11.0819 0 0 39.0355c0,13.747 5.0575,20.619 15.1739,20.619 10.0589,0 15.0881,-6.872 15.0881,-20.619l-0.0001 -39.0355 10.9112 0 0 39.5361c0,10.1436 -2.2881,17.9335 -6.8622,23.3714 -4.5754,5.4393 -10.9834,8.1574 -19.2225,8.1574 -8.2408,0 -14.6619,-2.7183 -19.2652,-8.1574z"/>
    <polygon id="_595541504" class="fil0" points="252.821,70.798 252.821,95.5204 241.74,95.5204 241.74,70.998 218.297,25.4564 230.146,25.4565 247.621,59.5876 265.267,25.4565 276.178,25.4565 "/>
    <polygon id="_595541264" class="fil0" points="285.128,25.4567 291.436,25.4567 291.436,89.1148 324.852,89.1149 324.852,95.5207 285.128,95.5207 "/>
    <path id="_595540880" class="fil0" d="M379.985 76.8035l-33.2454 0 -7.1603 18.7169 -6.5638 0 27.2782 -70.0639 6.223 0 27.2783 70.0639 -6.649 0 -7.161 -18.7169zm-2.3016 -6.0055l-14.3211 -37.6342 -14.3211 37.6342 28.6422 0z"/>
    <polygon id="_595540856" class="fil0" points="449.67,25.4567 449.67,95.5206 444.47,95.5207 406.11,38.669 406.11,95.5207 399.802,95.5207 399.802,25.4567 405.002,25.4567 443.447,82.3084 443.447,25.4567 "/>
    <path id="_595541432" class="fil0" d="M459.095 25.4567l24.2946 0c6.3082,0 11.8771,1.4856 16.7079,4.454 4.8297,2.9702 8.5804,7.1064 11.2522,12.4113 2.6707,5.3049 4.0066,11.3603 4.0066,18.1665 0,6.8062 -1.3359,12.8617 -4.0066,18.1666 -2.672,5.3049 -6.4225,9.443 -11.2522,12.4113 -4.831,2.9699 -10.4,4.454 -16.7079,4.454l-24.2946 0 0 -70.0637zm23.9538 63.6581c5.2279,0 9.8031,-1.2168 13.7242,-3.6534 3.9211,-2.435 6.9609,-5.8052 9.1212,-10.1092 2.159,-4.3042 3.2393,-9.2586 3.2393,-14.8638 0,-5.6052 -1.0803,-10.5595 -3.2393,-14.8634 -2.1603,-4.3042 -5.1999,-7.6727 -9.1212,-10.1095 -3.9211,-2.435 -8.4963,-3.6534 -13.7242,-3.6534l-17.6456 0.0002 0 57.2523 17.6456 0 0 0.0002z"/>
    <path id="_595541336" class="fil0" d="M539.522 91.4667c-4.803,-3.1028 -8.5537,-7.3567 -11.2522,-12.7614 -2.6998,-5.4052 -4.0492,-11.476 -4.0492,-18.2168 0,-6.7389 1.3494,-12.8116 4.0492,-18.2167 2.6985,-5.4049 6.4492,-9.6586 11.2522,-12.7614 4.8013,-3.103 10.1573,-4.6543 16.0683,-4.6543 5.9097,0 11.2376,1.5359 15.9832,4.604 4.7445,3.0702 8.482,7.3239 11.2096,12.7616 2.7279,5.4393 4.0918,11.5275 4.0918,18.2665 0,6.7408 -1.3639,12.8289 -4.0918,18.2668 -2.7279,5.4393 -6.4654,9.6933 -11.2096,12.7614 -4.7458,3.0702 -10.0735,4.6043 -15.9832,4.6043 -5.9111,0.0006 -11.2668,-1.5509 -16.0683,-4.654zm28.8551 -5.7049c3.8068,-2.5022 6.7903,-5.9711 8.9506,-10.4095 2.159,-4.4371 3.2393,-9.3914 3.2393,-14.8638 0,-5.4705 -1.0803,-10.4251 -3.2393,-14.8634 -2.1603,-4.4371 -5.1438,-7.9073 -8.9506,-10.4098 -3.8081,-2.5022 -8.0703,-3.7534 -12.7865,-3.7534 -4.7178,0 -8.9932,1.2512 -12.8293,3.7534 -3.8359,2.5024 -6.8487,5.9727 -9.0358,10.4098 -2.1884,4.438 -3.2816,9.3929 -3.2816,14.8634 0,5.4724 1.0935,10.4267 3.2816,14.8638 2.1873,4.4381 5.1999,7.9073 9.0358,10.4095 3.8361,2.5022 8.1115,3.7536 12.8293,3.7536 4.7162,-0.0002 8.9783,-1.2515 12.7865,-3.7536z"/>
    <path id="_595540952" class="fil1" d="M67.3613 12.4548c-4.8749,-5.6822 -13.9131,-12.455 -29.2869,-12.455 -15.3731,0 -24.4113,6.7723 -29.2857,12.4542 -6.6942,7.802 -9.9237,18.6878 -8.4286,28.4094 2.3241,15.1044 31.9265,50.5716 35.2946,54.5654l2.4196 2.8694 2.4196 -2.8694c1.2909,-1.5306 6.4376,-7.6899 12.4224,-15.5477l-5.163 -3.7222c-3.5679,4.6979 -6.976,8.9815 -9.6787,12.2772 -10.0571,-12.2621 -29.8601,-38.1471 -31.4582,-48.5348 -1.2036,-7.8269 1.5346,-16.9828 6.9765,-23.3259 5.7512,-6.7032 14.2169,-10.2465 24.4816,-10.2465 10.2656,0 18.7319,3.5433 24.4823,10.2473 5.442,6.3426 8.1801,15.4982 6.9757,23.3254 -0.8353,5.4295 -6.6527,15.0989 -13.4477,24.843l-6.023 -4.2333c5.3562,-7.2755 11.0725,-16.0217 11.8623,-21.1549 0.9506,-6.1793 -1.0954,-13.0911 -5.3404,-18.039 -2.6051,-3.0364 -7.0858,-6.5537 -14.2207,-7.592l0.0008 6.422c3.842,0.7488 7.0526,2.5368 9.4159,5.2919 3.6806,4.2905 4.3953,9.6599 3.8886,12.9551 -0.793,5.1509 -10.379,18.3697 -17.5936,27.2692 -7.2147,-8.8995 -16.8008,-22.1175 -17.5932,-27.2692 -0.5067,-3.2951 0.2077,-8.6646 3.8886,-12.9556 2.667,-3.1086 6.4191,-4.9752 10.9352,-5.515l-0.0011 -6.3762c-8.0259,0.7268 -12.9532,4.5238 -15.7382,7.77 -4.245,4.9474 -6.291,11.8597 -5.3404,18.039 1.4446,9.3919 19.3881,30.8958 21.4294,33.3168l2.4196 2.8694 2.4196 -2.8694c0.6152,-0.7295 2.6778,-3.1975 5.2938,-6.5381l6.1943 4.354c-0.0029,0.004 -0.0056,0.0077 -0.0085,0.0116l5.1684 3.7259c8.5685,-11.707 17.4183,-25.3787 18.6465,-33.3625 1.495,-9.7214 -1.7338,-20.6074 -8.4274,-28.4095z"/>
    <path id="_595541384" class="fil2" d="M38.0749 24.1716c-9.9803,0 -13.5842,8.3169 -12.7527,13.7229 0.8319,5.406 12.7527,19.5447 12.7527,19.5447 0,0 11.921,-14.1387 12.7526,-19.5447 0.8315,-5.4059 -2.7725,-13.7229 -12.7526,-13.7229zm0.3069 18.8307c-3.7454,0 -6.7818,-3.0364 -6.7818,-6.7818 0,-3.7454 3.0364,-6.7818 6.7818,-6.7818 3.7454,0 6.7818,3.0364 6.7818,6.7818 0,3.7454 -3.0364,6.7818 -6.7818,6.7818z"/>
   </g>
  </g>
 </g>
</svg>
